<?xml version="1.0" encoding="UTF-8" standalone="no"?>
<!-- Created with Inkscape (http://www.inkscape.org/) -->

<svg
   width="64"
   height="64"
   viewBox="0 0 64 64"
   version="1.1"
   id="svg1"
   inkscape:version="1.4.2 (f4327f4, 2025-05-13)"
   sodipodi:docname="reload.svg"
   xmlns:inkscape="http://www.inkscape.org/namespaces/inkscape"
   xmlns:sodipodi="http://sodipodi.sourceforge.net/DTD/sodipodi-0.dtd"
   xmlns="http://www.w3.org/2000/svg"
   xmlns:svg="http://www.w3.org/2000/svg">
  <sodipodi:namedview
     id="namedview1"
     pagecolor="#505050"
     bordercolor="#eeeeee"
     borderopacity="1"
     inkscape:showpageshadow="0"
     inkscape:pageopacity="0"
     inkscape:pagecheckerboard="0"
     inkscape:deskcolor="#505050"
     inkscape:document-units="px"
     showgrid="true"
     inkscape:zoom="11.01807"
     inkscape:cx="28.54402"
     inkscape:cy="27.81794"
     inkscape:window-width="1920"
     inkscape:window-height="991"
     inkscape:window-x="-9"
     inkscape:window-y="-9"
     inkscape:window-maximized="1"
     inkscape:current-layer="layer1">
    <inkscape:grid
       id="grid1"
       units="px"
       originx="0"
       originy="0"
       spacingx="1"
       spacingy="1"
       empcolor="#0099e5"
       empopacity="0.30196078"
       color="#0099e5"
       opacity="0.14901961"
       empspacing="4"
       enabled="true"
       visible="true" />
  </sodipodi:namedview>
  <defs
     id="defs1" />
  <g
     inkscape:label="Layer 1"
     inkscape:groupmode="layer"
     id="layer1">
    <path
       id="rect1"
       style="display:none;fill:#ffffff;stroke-width:0;stroke-linecap:square;stroke-opacity:0;paint-order:markers fill stroke"
       d="m 52,4 h 8 v 8 L 12,60 H 4 v -8 z"
       sodipodi:nodetypes="ccccccc" />
    <path
       id="path1"
       style="display:inline;fill:#ffffff;stroke-width:0;stroke-linecap:square;stroke-opacity:0;paint-order:markers fill stroke"
       d="m 44,32 h 4 4 4 4 l -8,8 z"
       sodipodi:nodetypes="ccccccc" />
    <path
       id="path2"
       style="fill:#ffffff;stroke-width:0;stroke-linecap:square;stroke-opacity:0;paint-order:markers fill stroke"
       d="M 32 8 A 24 24 0 0 0 11.214844 20 A 24 24 0 0 0 15.029297 48.970703 A 24 24 0 0 0 44 52.785156 L 40 45.855469 A 16 16 0 0 1 32 48 A 16 16 0 0 1 16 32 A 16 16 0 0 1 32 16 A 16 16 0 0 1 48 32 L 56 32 A 24 24 0 0 0 38.210938 8.8183594 A 24 24 0 0 0 32 8 z " />
  </g>
</svg>
